<?xml version="1.0" encoding="utf-8" standalone="no"?>
<!DOCTYPE svg PUBLIC "-//W3C//DTD SVG 1.1//EN"
  "http://www.w3.org/Graphics/SVG/1.1/DTD/svg11.dtd">
<!-- Created with matplotlib (https://matplotlib.org/) -->
<svg height="57.6pt" version="1.1" viewBox="0 0 288 57.6" width="288pt" xmlns="http://www.w3.org/2000/svg" xmlns:xlink="http://www.w3.org/1999/xlink">
 <defs>
  <style type="text/css">
*{stroke-linecap:butt;stroke-linejoin:round;}
  </style>
 </defs>
 <g id="figure_1">
  <g id="patch_1">
   <path d="M 0 57.6 
L 288 57.6 
L 288 0 
L 0 0 
z
" style="fill:#ffffff;"/>
  </g>
  <g id="axes_1">
   <g id="patch_2">
    <path d="M 11.52 43.776 
L 270.72 43.776 
L 270.72 2.88 
L 11.52 2.88 
z
" style="fill:#ffffff;"/>
   </g>
   <g id="matplotlib.axis_1">
    <g id="xtick_1">
     <g id="line2d_1">
      <path clip-path="url(#p89806e3029)" d="M 11.52 43.776 
L 11.52 2.88 
" style="fill:none;stroke:#b0b0b0;stroke-linecap:square;stroke-width:0.5;"/>
     </g>
     <g id="line2d_2">
      <defs>
       <path d="M 0 0 
L 0 3.5 
" id="mecee4f42f4" style="stroke:#000000;stroke-width:0.8;"/>
      </defs>
      <g>
       <use style="stroke:#000000;stroke-width:0.8;" x="11.52" xlink:href="#mecee4f42f4" y="43.776"/>
      </g>
     </g>
     <g id="text_1">
      <!-- 0 -->
      <defs>
       <path d="M 31.78125 66.40625 
Q 24.171875 66.40625 20.328125 58.90625 
Q 16.5 51.421875 16.5 36.375 
Q 16.5 21.390625 20.328125 13.890625 
Q 24.171875 6.390625 31.78125 6.390625 
Q 39.453125 6.390625 43.28125 13.890625 
Q 47.125 21.390625 47.125 36.375 
Q 47.125 51.421875 43.28125 58.90625 
Q 39.453125 66.40625 31.78125 66.40625 
z
M 31.78125 74.21875 
Q 44.046875 74.21875 50.515625 64.515625 
Q 56.984375 54.828125 56.984375 36.375 
Q 56.984375 17.96875 50.515625 8.265625 
Q 44.046875 -1.421875 31.78125 -1.421875 
Q 19.53125 -1.421875 13.0625 8.265625 
Q 6.59375 17.96875 6.59375 36.375 
Q 6.59375 54.828125 13.0625 64.515625 
Q 19.53125 74.21875 31.78125 74.21875 
z
" id="DejaVuSans-48"/>
      </defs>
      <g transform="translate(9.61125 55.335062)scale(0.06 -0.06)">
       <use xlink:href="#DejaVuSans-48"/>
      </g>
     </g>
    </g>
    <g id="xtick_2">
     <g id="line2d_3">
      <path clip-path="url(#p89806e3029)" d="M 54.72 43.776 
L 54.72 2.88 
" style="fill:none;stroke:#b0b0b0;stroke-linecap:square;stroke-width:0.5;"/>
     </g>
     <g id="line2d_4">
      <g>
       <use style="stroke:#000000;stroke-width:0.8;" x="54.72" xlink:href="#mecee4f42f4" y="43.776"/>
      </g>
     </g>
     <g id="text_2">
      <!-- 101 -->
      <defs>
       <path d="M 12.40625 8.296875 
L 28.515625 8.296875 
L 28.515625 63.921875 
L 10.984375 60.40625 
L 10.984375 69.390625 
L 28.421875 72.90625 
L 38.28125 72.90625 
L 38.28125 8.296875 
L 54.390625 8.296875 
L 54.390625 0 
L 12.40625 0 
z
" id="DejaVuSans-49"/>
      </defs>
      <g transform="translate(48.99375 55.335062)scale(0.06 -0.06)">
       <use xlink:href="#DejaVuSans-49"/>
       <use x="63.623047" xlink:href="#DejaVuSans-48"/>
       <use x="127.246094" xlink:href="#DejaVuSans-49"/>
      </g>
     </g>
    </g>
    <g id="xtick_3">
     <g id="line2d_5">
      <path clip-path="url(#p89806e3029)" d="M 97.92 43.776 
L 97.92 2.88 
" style="fill:none;stroke:#b0b0b0;stroke-linecap:square;stroke-width:0.5;"/>
     </g>
     <g id="line2d_6">
      <g>
       <use style="stroke:#000000;stroke-width:0.8;" x="97.92" xlink:href="#mecee4f42f4" y="43.776"/>
      </g>
     </g>
     <g id="text_3">
      <!-- 202 -->
      <defs>
       <path d="M 19.1875 8.296875 
L 53.609375 8.296875 
L 53.609375 0 
L 7.328125 0 
L 7.328125 8.296875 
Q 12.9375 14.109375 22.625 23.890625 
Q 32.328125 33.6875 34.8125 36.53125 
Q 39.546875 41.84375 41.421875 45.53125 
Q 43.3125 49.21875 43.3125 52.78125 
Q 43.3125 58.59375 39.234375 62.25 
Q 35.15625 65.921875 28.609375 65.921875 
Q 23.96875 65.921875 18.8125 64.3125 
Q 13.671875 62.703125 7.8125 59.421875 
L 7.8125 69.390625 
Q 13.765625 71.78125 18.9375 73 
Q 24.125 74.21875 28.421875 74.21875 
Q 39.75 74.21875 46.484375 68.546875 
Q 53.21875 62.890625 53.21875 53.421875 
Q 53.21875 48.921875 51.53125 44.890625 
Q 49.859375 40.875 45.40625 35.40625 
Q 44.1875 33.984375 37.640625 27.21875 
Q 31.109375 20.453125 19.1875 8.296875 
z
" id="DejaVuSans-50"/>
      </defs>
      <g transform="translate(92.19375 55.335062)scale(0.06 -0.06)">
       <use xlink:href="#DejaVuSans-50"/>
       <use x="63.623047" xlink:href="#DejaVuSans-48"/>
       <use x="127.246094" xlink:href="#DejaVuSans-50"/>
      </g>
     </g>
    </g>
    <g id="xtick_4">
     <g id="line2d_7">
      <path clip-path="url(#p89806e3029)" d="M 141.12 43.776 
L 141.12 2.88 
" style="fill:none;stroke:#b0b0b0;stroke-linecap:square;stroke-width:0.5;"/>
     </g>
     <g id="line2d_8">
      <g>
       <use style="stroke:#000000;stroke-width:0.8;" x="141.12" xlink:href="#mecee4f42f4" y="43.776"/>
      </g>
     </g>
     <g id="text_4">
      <!-- 303 -->
      <defs>
       <path d="M 40.578125 39.3125 
Q 47.65625 37.796875 51.625 33 
Q 55.609375 28.21875 55.609375 21.1875 
Q 55.609375 10.40625 48.1875 4.484375 
Q 40.765625 -1.421875 27.09375 -1.421875 
Q 22.515625 -1.421875 17.65625 -0.515625 
Q 12.796875 0.390625 7.625 2.203125 
L 7.625 11.71875 
Q 11.71875 9.328125 16.59375 8.109375 
Q 21.484375 6.890625 26.8125 6.890625 
Q 36.078125 6.890625 40.9375 10.546875 
Q 45.796875 14.203125 45.796875 21.1875 
Q 45.796875 27.640625 41.28125 31.265625 
Q 36.765625 34.90625 28.71875 34.90625 
L 20.21875 34.90625 
L 20.21875 43.015625 
L 29.109375 43.015625 
Q 36.375 43.015625 40.234375 45.921875 
Q 44.09375 48.828125 44.09375 54.296875 
Q 44.09375 59.90625 40.109375 62.90625 
Q 36.140625 65.921875 28.71875 65.921875 
Q 24.65625 65.921875 20.015625 65.03125 
Q 15.375 64.15625 9.8125 62.3125 
L 9.8125 71.09375 
Q 15.4375 72.65625 20.34375 73.4375 
Q 25.25 74.21875 29.59375 74.21875 
Q 40.828125 74.21875 47.359375 69.109375 
Q 53.90625 64.015625 53.90625 55.328125 
Q 53.90625 49.265625 50.4375 45.09375 
Q 46.96875 40.921875 40.578125 39.3125 
z
" id="DejaVuSans-51"/>
      </defs>
      <g transform="translate(135.39375 55.335062)scale(0.06 -0.06)">
       <use xlink:href="#DejaVuSans-51"/>
       <use x="63.623047" xlink:href="#DejaVuSans-48"/>
       <use x="127.246094" xlink:href="#DejaVuSans-51"/>
      </g>
     </g>
    </g>
    <g id="xtick_5">
     <g id="line2d_9">
      <path clip-path="url(#p89806e3029)" d="M 184.32 43.776 
L 184.32 2.88 
" style="fill:none;stroke:#b0b0b0;stroke-linecap:square;stroke-width:0.5;"/>
     </g>
     <g id="line2d_10">
      <g>
       <use style="stroke:#000000;stroke-width:0.8;" x="184.32" xlink:href="#mecee4f42f4" y="43.776"/>
      </g>
     </g>
     <g id="text_5">
      <!-- 404 -->
      <defs>
       <path d="M 37.796875 64.3125 
L 12.890625 25.390625 
L 37.796875 25.390625 
z
M 35.203125 72.90625 
L 47.609375 72.90625 
L 47.609375 25.390625 
L 58.015625 25.390625 
L 58.015625 17.1875 
L 47.609375 17.1875 
L 47.609375 0 
L 37.796875 0 
L 37.796875 17.1875 
L 4.890625 17.1875 
L 4.890625 26.703125 
z
" id="DejaVuSans-52"/>
      </defs>
      <g transform="translate(178.59375 55.335062)scale(0.06 -0.06)">
       <use xlink:href="#DejaVuSans-52"/>
       <use x="63.623047" xlink:href="#DejaVuSans-48"/>
       <use x="127.246094" xlink:href="#DejaVuSans-52"/>
      </g>
     </g>
    </g>
    <g id="xtick_6">
     <g id="line2d_11">
      <path clip-path="url(#p89806e3029)" d="M 227.52 43.776 
L 227.52 2.88 
" style="fill:none;stroke:#b0b0b0;stroke-linecap:square;stroke-width:0.5;"/>
     </g>
     <g id="line2d_12">
      <g>
       <use style="stroke:#000000;stroke-width:0.8;" x="227.52" xlink:href="#mecee4f42f4" y="43.776"/>
      </g>
     </g>
     <g id="text_6">
      <!-- 505 -->
      <defs>
       <path d="M 10.796875 72.90625 
L 49.515625 72.90625 
L 49.515625 64.59375 
L 19.828125 64.59375 
L 19.828125 46.734375 
Q 21.96875 47.46875 24.109375 47.828125 
Q 26.265625 48.1875 28.421875 48.1875 
Q 40.625 48.1875 47.75 41.5 
Q 54.890625 34.8125 54.890625 23.390625 
Q 54.890625 11.625 47.5625 5.09375 
Q 40.234375 -1.421875 26.90625 -1.421875 
Q 22.3125 -1.421875 17.546875 -0.640625 
Q 12.796875 0.140625 7.71875 1.703125 
L 7.71875 11.625 
Q 12.109375 9.234375 16.796875 8.0625 
Q 21.484375 6.890625 26.703125 6.890625 
Q 35.15625 6.890625 40.078125 11.328125 
Q 45.015625 15.765625 45.015625 23.390625 
Q 45.015625 31 40.078125 35.4375 
Q 35.15625 39.890625 26.703125 39.890625 
Q 22.75 39.890625 18.8125 39.015625 
Q 14.890625 38.140625 10.796875 36.28125 
z
" id="DejaVuSans-53"/>
      </defs>
      <g transform="translate(221.79375 55.335062)scale(0.06 -0.06)">
       <use xlink:href="#DejaVuSans-53"/>
       <use x="63.623047" xlink:href="#DejaVuSans-48"/>
       <use x="127.246094" xlink:href="#DejaVuSans-53"/>
      </g>
     </g>
    </g>
    <g id="xtick_7">
     <g id="line2d_13">
      <path clip-path="url(#p89806e3029)" d="M 270.72 43.776 
L 270.72 2.88 
" style="fill:none;stroke:#b0b0b0;stroke-linecap:square;stroke-width:0.5;"/>
     </g>
     <g id="line2d_14">
      <g>
       <use style="stroke:#000000;stroke-width:0.8;" x="270.72" xlink:href="#mecee4f42f4" y="43.776"/>
      </g>
     </g>
     <g id="text_7">
      <!-- 606 -->
      <defs>
       <path d="M 33.015625 40.375 
Q 26.375 40.375 22.484375 35.828125 
Q 18.609375 31.296875 18.609375 23.390625 
Q 18.609375 15.53125 22.484375 10.953125 
Q 26.375 6.390625 33.015625 6.390625 
Q 39.65625 6.390625 43.53125 10.953125 
Q 47.40625 15.53125 47.40625 23.390625 
Q 47.40625 31.296875 43.53125 35.828125 
Q 39.65625 40.375 33.015625 40.375 
z
M 52.59375 71.296875 
L 52.59375 62.3125 
Q 48.875 64.0625 45.09375 64.984375 
Q 41.3125 65.921875 37.59375 65.921875 
Q 27.828125 65.921875 22.671875 59.328125 
Q 17.53125 52.734375 16.796875 39.40625 
Q 19.671875 43.65625 24.015625 45.921875 
Q 28.375 48.1875 33.59375 48.1875 
Q 44.578125 48.1875 50.953125 41.515625 
Q 57.328125 34.859375 57.328125 23.390625 
Q 57.328125 12.15625 50.6875 5.359375 
Q 44.046875 -1.421875 33.015625 -1.421875 
Q 20.359375 -1.421875 13.671875 8.265625 
Q 6.984375 17.96875 6.984375 36.375 
Q 6.984375 53.65625 15.1875 63.9375 
Q 23.390625 74.21875 37.203125 74.21875 
Q 40.921875 74.21875 44.703125 73.484375 
Q 48.484375 72.75 52.59375 71.296875 
z
" id="DejaVuSans-54"/>
      </defs>
      <g transform="translate(264.99375 55.335062)scale(0.06 -0.06)">
       <use xlink:href="#DejaVuSans-54"/>
       <use x="63.623047" xlink:href="#DejaVuSans-48"/>
       <use x="127.246094" xlink:href="#DejaVuSans-54"/>
      </g>
     </g>
    </g>
    <g id="xtick_8">
     <g id="line2d_15"/>
     <g id="text_8">
      <!-- $aff.~GRF_{ML}$ -->
      <defs>
       <path d="M 53.71875 31.203125 
L 47.609375 0 
L 38.625 0 
L 40.28125 8.296875 
Q 36.328125 3.421875 31.265625 1 
Q 26.21875 -1.421875 20.015625 -1.421875 
Q 13.03125 -1.421875 8.5625 2.84375 
Q 4.109375 7.125 4.109375 13.8125 
Q 4.109375 23.390625 11.75 28.953125 
Q 19.390625 34.515625 32.8125 34.515625 
L 45.3125 34.515625 
L 45.796875 36.921875 
Q 45.90625 37.3125 45.953125 37.765625 
Q 46 38.234375 46 39.203125 
Q 46 43.5625 42.453125 45.96875 
Q 38.921875 48.390625 32.515625 48.390625 
Q 28.125 48.390625 23.5 47.265625 
Q 18.890625 46.140625 14.015625 43.890625 
L 15.578125 52.203125 
Q 20.65625 54.109375 25.515625 55.046875 
Q 30.375 56 34.90625 56 
Q 44.578125 56 49.625 51.796875 
Q 54.6875 47.609375 54.6875 39.59375 
Q 54.6875 37.984375 54.4375 35.8125 
Q 54.203125 33.640625 53.71875 31.203125 
z
M 44 27.484375 
L 35.015625 27.484375 
Q 23.96875 27.484375 18.671875 24.53125 
Q 13.375 21.578125 13.375 15.375 
Q 13.375 11.078125 16.078125 8.640625 
Q 18.796875 6.203125 23.578125 6.203125 
Q 30.90625 6.203125 36.375 11.453125 
Q 41.84375 16.703125 43.609375 25.484375 
z
" id="DejaVuSans-Oblique-97"/>
       <path d="M 47.796875 75.984375 
L 46.390625 68.5 
L 37.796875 68.5 
Q 32.90625 68.5 30.6875 66.578125 
Q 28.46875 64.65625 27.390625 59.515625 
L 26.421875 54.6875 
L 41.21875 54.6875 
L 39.890625 47.703125 
L 25.09375 47.703125 
L 15.828125 0 
L 6.78125 0 
L 16.109375 47.703125 
L 7.515625 47.703125 
L 8.796875 54.6875 
L 17.390625 54.6875 
L 18.109375 58.5 
Q 19.96875 68.171875 24.625 72.078125 
Q 29.296875 75.984375 39.3125 75.984375 
z
" id="DejaVuSans-Oblique-102"/>
       <path d="M 10.6875 12.40625 
L 21 12.40625 
L 21 0 
L 10.6875 0 
z
" id="DejaVuSans-46"/>
       <path d="M 54.59375 10.890625 
L 58.40625 29.984375 
L 42.1875 29.984375 
L 43.703125 38.09375 
L 69.578125 38.09375 
L 63.28125 6 
Q 56.78125 2.4375 49.109375 0.5 
Q 41.453125 -1.421875 33.6875 -1.421875 
Q 19.96875 -1.421875 12.234375 6.1875 
Q 4.5 13.8125 4.5 27.390625 
Q 4.5 38.671875 9.203125 48.84375 
Q 13.921875 59.03125 22.21875 65.828125 
Q 27.4375 70.0625 33.640625 72.140625 
Q 39.84375 74.21875 47.40625 74.21875 
Q 54.25 74.21875 60.515625 72.484375 
Q 66.796875 70.75 72.515625 67.28125 
L 70.515625 56.78125 
Q 66.109375 61.375 60.203125 63.796875 
Q 54.296875 66.21875 47.609375 66.21875 
Q 39.84375 66.21875 33.9375 63.25 
Q 28.03125 60.296875 23.390625 54.109375 
Q 19.4375 48.828125 17.15625 41.671875 
Q 14.890625 34.515625 14.890625 27.09375 
Q 14.890625 16.890625 20.109375 11.734375 
Q 25.34375 6.59375 35.6875 6.59375 
Q 40.875 6.59375 45.703125 7.6875 
Q 50.53125 8.796875 54.59375 10.890625 
z
" id="DejaVuSans-Oblique-71"/>
       <path d="M 25.203125 64.796875 
L 20.21875 38.921875 
L 32.90625 38.921875 
Q 40.375 38.921875 44.984375 43.046875 
Q 49.609375 47.171875 49.609375 53.8125 
Q 49.609375 59.125 46.5 61.953125 
Q 43.40625 64.796875 37.59375 64.796875 
z
M 43.3125 35.015625 
Q 46.4375 34.28125 48.515625 31.390625 
Q 50.59375 28.515625 53.328125 19.921875 
L 59.515625 0 
L 49.125 0 
L 43.40625 18.703125 
Q 41.21875 25.921875 38.328125 28.359375 
Q 35.453125 30.8125 29.5 30.8125 
L 18.609375 30.8125 
L 12.59375 0 
L 2.6875 0 
L 16.890625 72.90625 
L 39.109375 72.90625 
Q 49.21875 72.90625 54.609375 68.328125 
Q 60.015625 63.765625 60.015625 55.171875 
Q 60.015625 47.5625 55.421875 41.984375 
Q 50.828125 36.421875 43.3125 35.015625 
z
" id="DejaVuSans-Oblique-82"/>
       <path d="M 16.890625 72.90625 
L 58.6875 72.90625 
L 57.078125 64.59375 
L 25.09375 64.59375 
L 20.90625 43.109375 
L 49.8125 43.109375 
L 48.1875 34.8125 
L 19.28125 34.8125 
L 12.5 0 
L 2.6875 0 
z
" id="DejaVuSans-Oblique-70"/>
       <path d="M 16.890625 72.90625 
L 31.6875 72.90625 
L 40.1875 23.78125 
L 68.40625 72.90625 
L 83.59375 72.90625 
L 69.390625 0 
L 59.8125 0 
L 72.21875 63.921875 
L 43.609375 14.015625 
L 33.984375 14.015625 
L 24.703125 64.109375 
L 12.3125 0 
L 2.6875 0 
z
" id="DejaVuSans-Oblique-77"/>
       <path d="M 16.796875 72.90625 
L 26.703125 72.90625 
L 14.203125 8.203125 
L 49.703125 8.203125 
L 48.09375 0 
L 2.6875 0 
z
" id="DejaVuSans-Oblique-76"/>
      </defs>
      <g transform="translate(20.045 50.975219)scale(0.05 -0.05)">
       <use transform="translate(0 0.015625)" xlink:href="#DejaVuSans-Oblique-97"/>
       <use transform="translate(61.279297 0.015625)" xlink:href="#DejaVuSans-Oblique-102"/>
       <use transform="translate(96.484375 0.015625)" xlink:href="#DejaVuSans-Oblique-102"/>
       <use transform="translate(131.689453 0.015625)" xlink:href="#DejaVuSans-46"/>
       <use transform="translate(215.429363 0.015625)" xlink:href="#DejaVuSans-Oblique-71"/>
       <use transform="translate(292.919597 0.015625)" xlink:href="#DejaVuSans-Oblique-82"/>
       <use transform="translate(362.402019 0.015625)" xlink:href="#DejaVuSans-Oblique-70"/>
       <use transform="translate(419.92155 -16.390625)scale(0.7)" xlink:href="#DejaVuSans-Oblique-77"/>
       <use transform="translate(480.317058 -16.390625)scale(0.7)" xlink:href="#DejaVuSans-Oblique-76"/>
      </g>
     </g>
    </g>
    <g id="xtick_9">
     <g id="line2d_16"/>
     <g id="text_9">
      <!-- $aff.~GRF_{AP}$ -->
      <defs>
       <path d="M 36.8125 72.90625 
L 48 72.90625 
L 61.53125 0 
L 51.21875 0 
L 48.1875 18.703125 
L 15.375 18.703125 
L 5.078125 0 
L -5.328125 0 
z
M 40.375 63.1875 
L 19.921875 26.90625 
L 46.6875 26.90625 
z
" id="DejaVuSans-Oblique-65"/>
       <path d="M 16.890625 72.90625 
L 39.703125 72.90625 
Q 49.65625 72.90625 54.875 68.265625 
Q 60.109375 63.625 60.109375 54.6875 
Q 60.109375 42.671875 52.390625 35.984375 
Q 44.671875 29.296875 30.71875 29.296875 
L 18.3125 29.296875 
L 12.59375 0 
L 2.6875 0 
z
M 25.203125 64.796875 
L 19.921875 37.40625 
L 32.328125 37.40625 
Q 40.71875 37.40625 45.203125 41.703125 
Q 49.703125 46 49.703125 54 
Q 49.703125 59.125 46.65625 61.953125 
Q 43.609375 64.796875 38.09375 64.796875 
z
" id="DejaVuSans-Oblique-80"/>
      </defs>
      <g transform="translate(63.495 50.975219)scale(0.05 -0.05)">
       <use transform="translate(0 0.015625)" xlink:href="#DejaVuSans-Oblique-97"/>
       <use transform="translate(61.279297 0.015625)" xlink:href="#DejaVuSans-Oblique-102"/>
       <use transform="translate(96.484375 0.015625)" xlink:href="#DejaVuSans-Oblique-102"/>
       <use transform="translate(131.689453 0.015625)" xlink:href="#DejaVuSans-46"/>
       <use transform="translate(215.429363 0.015625)" xlink:href="#DejaVuSans-Oblique-71"/>
       <use transform="translate(292.919597 0.015625)" xlink:href="#DejaVuSans-Oblique-82"/>
       <use transform="translate(362.402019 0.015625)" xlink:href="#DejaVuSans-Oblique-70"/>
       <use transform="translate(419.92155 -16.390625)scale(0.7)" xlink:href="#DejaVuSans-Oblique-65"/>
       <use transform="translate(467.807292 -16.390625)scale(0.7)" xlink:href="#DejaVuSans-Oblique-80"/>
      </g>
     </g>
    </g>
    <g id="xtick_10">
     <g id="line2d_17"/>
     <g id="text_10">
      <!-- $aff.~GRF_{V}$ -->
      <defs>
       <path d="M 20.609375 0 
L 7.8125 72.90625 
L 17.484375 72.90625 
L 28.078125 10.203125 
L 63.484375 72.90625 
L 74.21875 72.90625 
L 32.078125 0 
z
" id="DejaVuSans-Oblique-86"/>
      </defs>
      <g transform="translate(107.745 50.975219)scale(0.05 -0.05)">
       <use transform="translate(0 0.015625)" xlink:href="#DejaVuSans-Oblique-97"/>
       <use transform="translate(61.279297 0.015625)" xlink:href="#DejaVuSans-Oblique-102"/>
       <use transform="translate(96.484375 0.015625)" xlink:href="#DejaVuSans-Oblique-102"/>
       <use transform="translate(131.689453 0.015625)" xlink:href="#DejaVuSans-46"/>
       <use transform="translate(215.429363 0.015625)" xlink:href="#DejaVuSans-Oblique-71"/>
       <use transform="translate(292.919597 0.015625)" xlink:href="#DejaVuSans-Oblique-82"/>
       <use transform="translate(362.402019 0.015625)" xlink:href="#DejaVuSans-Oblique-70"/>
       <use transform="translate(419.92155 -16.390625)scale(0.7)" xlink:href="#DejaVuSans-Oblique-86"/>
      </g>
     </g>
    </g>
    <g id="xtick_11">
     <g id="line2d_18"/>
     <g id="text_11">
      <!-- $unaff.~GRF_{ML}$ -->
      <defs>
       <path d="M 6.6875 21.6875 
L 13.09375 54.6875 
L 22.125 54.6875 
L 15.71875 22.015625 
Q 15.234375 19.625 15.015625 17.921875 
Q 14.796875 16.21875 14.796875 15.09375 
Q 14.796875 10.9375 17.328125 8.65625 
Q 19.875 6.390625 24.515625 6.390625 
Q 31.734375 6.390625 37 11.265625 
Q 42.28125 16.15625 43.890625 24.421875 
L 49.90625 54.6875 
L 58.890625 54.6875 
L 48.296875 0 
L 39.3125 0 
L 41.109375 8.59375 
Q 37.3125 3.8125 32.0625 1.1875 
Q 26.8125 -1.421875 20.90625 -1.421875 
Q 13.71875 -1.421875 9.71875 2.515625 
Q 5.71875 6.453125 5.71875 13.484375 
Q 5.71875 14.9375 5.953125 17.140625 
Q 6.203125 19.34375 6.6875 21.6875 
z
" id="DejaVuSans-Oblique-117"/>
       <path d="M 55.71875 33.015625 
L 49.3125 0 
L 40.28125 0 
L 46.6875 32.671875 
Q 47.125 34.96875 47.359375 36.71875 
Q 47.609375 38.484375 47.609375 39.5 
Q 47.609375 43.609375 45.015625 45.890625 
Q 42.4375 48.1875 37.796875 48.1875 
Q 30.5625 48.1875 25.34375 43.375 
Q 20.125 38.578125 18.5 30.328125 
L 12.5 0 
L 3.515625 0 
L 14.109375 54.6875 
L 23.09375 54.6875 
L 21.296875 46.09375 
Q 25.046875 50.828125 30.3125 53.40625 
Q 35.59375 56 41.40625 56 
Q 48.640625 56 52.609375 52.09375 
Q 56.59375 48.1875 56.59375 41.109375 
Q 56.59375 39.359375 56.375 37.359375 
Q 56.15625 35.359375 55.71875 33.015625 
z
" id="DejaVuSans-Oblique-110"/>
      </defs>
      <g transform="translate(146.495 50.975219)scale(0.05 -0.05)">
       <use transform="translate(0 0.015625)" xlink:href="#DejaVuSans-Oblique-117"/>
       <use transform="translate(63.378906 0.015625)" xlink:href="#DejaVuSans-Oblique-110"/>
       <use transform="translate(126.757812 0.015625)" xlink:href="#DejaVuSans-Oblique-97"/>
       <use transform="translate(188.037109 0.015625)" xlink:href="#DejaVuSans-Oblique-102"/>
       <use transform="translate(223.242188 0.015625)" xlink:href="#DejaVuSans-Oblique-102"/>
       <use transform="translate(258.447266 0.015625)" xlink:href="#DejaVuSans-46"/>
       <use transform="translate(342.187175 0.015625)" xlink:href="#DejaVuSans-Oblique-71"/>
       <use transform="translate(419.67741 0.015625)" xlink:href="#DejaVuSans-Oblique-82"/>
       <use transform="translate(489.159832 0.015625)" xlink:href="#DejaVuSans-Oblique-70"/>
       <use transform="translate(546.679363 -16.390625)scale(0.7)" xlink:href="#DejaVuSans-Oblique-77"/>
       <use transform="translate(607.074871 -16.390625)scale(0.7)" xlink:href="#DejaVuSans-Oblique-76"/>
      </g>
     </g>
    </g>
    <g id="xtick_12">
     <g id="line2d_19"/>
     <g id="text_12">
      <!-- $unaff.~GRF_{AP}$ -->
      <g transform="translate(189.92 50.975219)scale(0.05 -0.05)">
       <use transform="translate(0 0.015625)" xlink:href="#DejaVuSans-Oblique-117"/>
       <use transform="translate(63.378906 0.015625)" xlink:href="#DejaVuSans-Oblique-110"/>
       <use transform="translate(126.757812 0.015625)" xlink:href="#DejaVuSans-Oblique-97"/>
       <use transform="translate(188.037109 0.015625)" xlink:href="#DejaVuSans-Oblique-102"/>
       <use transform="translate(223.242188 0.015625)" xlink:href="#DejaVuSans-Oblique-102"/>
       <use transform="translate(258.447266 0.015625)" xlink:href="#DejaVuSans-46"/>
       <use transform="translate(342.187175 0.015625)" xlink:href="#DejaVuSans-Oblique-71"/>
       <use transform="translate(419.67741 0.015625)" xlink:href="#DejaVuSans-Oblique-82"/>
       <use transform="translate(489.159832 0.015625)" xlink:href="#DejaVuSans-Oblique-70"/>
       <use transform="translate(546.679363 -16.390625)scale(0.7)" xlink:href="#DejaVuSans-Oblique-65"/>
       <use transform="translate(594.565105 -16.390625)scale(0.7)" xlink:href="#DejaVuSans-Oblique-80"/>
      </g>
     </g>
    </g>
    <g id="xtick_13">
     <g id="line2d_20"/>
     <g id="text_13">
      <!-- $unaff.~GRF_{V}$ -->
      <g transform="translate(234.17 50.975219)scale(0.05 -0.05)">
       <use transform="translate(0 0.015625)" xlink:href="#DejaVuSans-Oblique-117"/>
       <use transform="translate(63.378906 0.015625)" xlink:href="#DejaVuSans-Oblique-110"/>
       <use transform="translate(126.757812 0.015625)" xlink:href="#DejaVuSans-Oblique-97"/>
       <use transform="translate(188.037109 0.015625)" xlink:href="#DejaVuSans-Oblique-102"/>
       <use transform="translate(223.242188 0.015625)" xlink:href="#DejaVuSans-Oblique-102"/>
       <use transform="translate(258.447266 0.015625)" xlink:href="#DejaVuSans-46"/>
       <use transform="translate(342.187175 0.015625)" xlink:href="#DejaVuSans-Oblique-71"/>
       <use transform="translate(419.67741 0.015625)" xlink:href="#DejaVuSans-Oblique-82"/>
       <use transform="translate(489.159832 0.015625)" xlink:href="#DejaVuSans-Oblique-70"/>
       <use transform="translate(546.679363 -16.390625)scale(0.7)" xlink:href="#DejaVuSans-Oblique-86"/>
      </g>
     </g>
    </g>
   </g>
   <g id="matplotlib.axis_2">
    <g id="ytick_1">
     <g id="line2d_21">
      <defs>
       <path d="M 0 0 
L 3.5 0 
" id="mead0a53a63" style="stroke:#000000;stroke-width:0.8;"/>
      </defs>
      <g>
       <use style="stroke:#000000;stroke-width:0.8;" x="270.72" xlink:href="#mead0a53a63" y="43.776"/>
      </g>
     </g>
     <g id="text_14">
      <!-- -1 -->
      <defs>
       <path d="M 4.890625 31.390625 
L 31.203125 31.390625 
L 31.203125 23.390625 
L 4.890625 23.390625 
z
" id="DejaVuSans-45"/>
      </defs>
      <g transform="translate(277.72 46.815375)scale(0.08 -0.08)">
       <use xlink:href="#DejaVuSans-45"/>
       <use x="36.083984" xlink:href="#DejaVuSans-49"/>
      </g>
     </g>
    </g>
    <g id="ytick_2">
     <g id="line2d_22">
      <g>
       <use style="stroke:#000000;stroke-width:0.8;" x="270.72" xlink:href="#mead0a53a63" y="23.328"/>
      </g>
     </g>
     <g id="text_15">
      <!--  0 -->
      <defs>
       <path id="DejaVuSans-32"/>
      </defs>
      <g transform="translate(277.72 26.367375)scale(0.08 -0.08)">
       <use xlink:href="#DejaVuSans-32"/>
       <use x="31.787109" xlink:href="#DejaVuSans-48"/>
      </g>
     </g>
    </g>
    <g id="ytick_3">
     <g id="line2d_23">
      <g>
       <use style="stroke:#000000;stroke-width:0.8;" x="270.72" xlink:href="#mead0a53a63" y="2.88"/>
      </g>
     </g>
     <g id="text_16">
      <!--  1 -->
      <g transform="translate(277.72 5.919375)scale(0.08 -0.08)">
       <use xlink:href="#DejaVuSans-32"/>
       <use x="31.787109" xlink:href="#DejaVuSans-49"/>
      </g>
     </g>
    </g>
    <g id="text_17">
     <!-- Input -->
     <defs>
      <path d="M 9.8125 72.90625 
L 19.671875 72.90625 
L 19.671875 0 
L 9.8125 0 
z
" id="DejaVuSans-73"/>
      <path d="M 54.890625 33.015625 
L 54.890625 0 
L 45.90625 0 
L 45.90625 32.71875 
Q 45.90625 40.484375 42.875 44.328125 
Q 39.84375 48.1875 33.796875 48.1875 
Q 26.515625 48.1875 22.3125 43.546875 
Q 18.109375 38.921875 18.109375 30.90625 
L 18.109375 0 
L 9.078125 0 
L 9.078125 54.6875 
L 18.109375 54.6875 
L 18.109375 46.1875 
Q 21.34375 51.125 25.703125 53.5625 
Q 30.078125 56 35.796875 56 
Q 45.21875 56 50.046875 50.171875 
Q 54.890625 44.34375 54.890625 33.015625 
z
" id="DejaVuSans-110"/>
      <path d="M 18.109375 8.203125 
L 18.109375 -20.796875 
L 9.078125 -20.796875 
L 9.078125 54.6875 
L 18.109375 54.6875 
L 18.109375 46.390625 
Q 20.953125 51.265625 25.265625 53.625 
Q 29.59375 56 35.59375 56 
Q 45.5625 56 51.78125 48.09375 
Q 58.015625 40.1875 58.015625 27.296875 
Q 58.015625 14.40625 51.78125 6.484375 
Q 45.5625 -1.421875 35.59375 -1.421875 
Q 29.59375 -1.421875 25.265625 0.953125 
Q 20.953125 3.328125 18.109375 8.203125 
z
M 48.6875 27.296875 
Q 48.6875 37.203125 44.609375 42.84375 
Q 40.53125 48.484375 33.40625 48.484375 
Q 26.265625 48.484375 22.1875 42.84375 
Q 18.109375 37.203125 18.109375 27.296875 
Q 18.109375 17.390625 22.1875 11.75 
Q 26.265625 6.109375 33.40625 6.109375 
Q 40.53125 6.109375 44.609375 11.75 
Q 48.6875 17.390625 48.6875 27.296875 
z
" id="DejaVuSans-112"/>
      <path d="M 8.5 21.578125 
L 8.5 54.6875 
L 17.484375 54.6875 
L 17.484375 21.921875 
Q 17.484375 14.15625 20.5 10.265625 
Q 23.53125 6.390625 29.59375 6.390625 
Q 36.859375 6.390625 41.078125 11.03125 
Q 45.3125 15.671875 45.3125 23.6875 
L 45.3125 54.6875 
L 54.296875 54.6875 
L 54.296875 0 
L 45.3125 0 
L 45.3125 8.40625 
Q 42.046875 3.421875 37.71875 1 
Q 33.40625 -1.421875 27.6875 -1.421875 
Q 18.265625 -1.421875 13.375 4.4375 
Q 8.5 10.296875 8.5 21.578125 
z
M 31.109375 56 
z
" id="DejaVuSans-117"/>
      <path d="M 18.3125 70.21875 
L 18.3125 54.6875 
L 36.8125 54.6875 
L 36.8125 47.703125 
L 18.3125 47.703125 
L 18.3125 18.015625 
Q 18.3125 11.328125 20.140625 9.421875 
Q 21.96875 7.515625 27.59375 7.515625 
L 36.8125 7.515625 
L 36.8125 0 
L 27.59375 0 
Q 17.1875 0 13.234375 3.875 
Q 9.28125 7.765625 9.28125 18.015625 
L 9.28125 47.703125 
L 2.6875 47.703125 
L 2.6875 54.6875 
L 9.28125 54.6875 
L 9.28125 70.21875 
z
" id="DejaVuSans-116"/>
     </defs>
     <g style="fill:#0000ff;" transform="translate(5.85625 33.6855)rotate(-90)scale(0.08 -0.08)">
      <use xlink:href="#DejaVuSans-73"/>
      <use x="29.492188" xlink:href="#DejaVuSans-110"/>
      <use x="92.871094" xlink:href="#DejaVuSans-112"/>
      <use x="156.347656" xlink:href="#DejaVuSans-117"/>
      <use x="219.726562" xlink:href="#DejaVuSans-116"/>
     </g>
    </g>
   </g>
   <g id="line2d_24">
    <path clip-path="url(#p89806e3029)" d="M 11.52 22.078624 
L 12.375446 25.798244 
L 12.803168 26.208056 
L 14.086337 23.352958 
L 14.941782 22.971272 
L 15.369505 22.415084 
L 16.652673 19.644418 
L 17.508119 18.728688 
L 17.935842 18.299739 
L 18.791287 16.870428 
L 20.502178 13.075257 
L 20.929901 12.502604 
L 21.357624 12.228642 
L 22.213069 12.207883 
L 24.779406 12.483136 
L 28.201188 12.019407 
L 29.912079 12.259442 
L 31.62297 12.054541 
L 32.906139 11.631237 
L 34.61703 10.628733 
L 37.183366 9.028794 
L 38.894257 8.395049 
L 41.032871 7.974314 
L 42.31604 7.425935 
L 43.171485 7.330103 
L 43.599208 7.439492 
L 44.026931 7.6877 
L 44.454653 8.095137 
L 45.310099 9.448595 
L 46.593267 12.253207 
L 47.448713 14.418651 
L 49.159604 19.741808 
L 49.587327 20.503586 
L 50.01505 20.939558 
L 50.870495 21.274094 
L 52.153663 21.637889 
L 53.009109 21.562295 
L 54.292277 21.131587 
L 54.72 22.050138 
L 55.147723 21.888909 
L 55.575446 22.589674 
L 56.430891 25.669627 
L 56.858614 26.457475 
L 57.286337 26.461276 
L 57.714059 26.203743 
L 58.141782 26.146036 
L 58.569505 26.387679 
L 60.708119 28.482637 
L 61.563564 28.802461 
L 62.846733 28.879026 
L 64.129901 28.801407 
L 65.413069 28.371993 
L 66.696238 27.696591 
L 70.11802 25.381538 
L 71.828911 24.861066 
L 73.539802 24.329603 
L 74.82297 23.712973 
L 78.244752 21.709502 
L 79.100198 21.325286 
L 79.955644 21.143194 
L 82.52198 20.862725 
L 83.377426 20.38005 
L 85.088317 18.909054 
L 87.226931 17.104819 
L 89.365545 15.542798 
L 90.22099 15.108415 
L 90.648713 15.083379 
L 91.076436 15.262018 
L 91.504158 15.679507 
L 93.642772 18.665742 
L 94.925941 19.990437 
L 96.636832 21.916366 
L 97.064554 22.237077 
L 97.492277 22.394297 
L 97.92 42.364819 
L 98.775446 36.126327 
L 99.203168 34.317021 
L 99.630891 33.626405 
L 100.486337 32.704648 
L 101.769505 31.123589 
L 102.197228 30.316065 
L 103.052673 27.775374 
L 104.763564 21.952013 
L 105.61901 19.687636 
L 106.474455 17.989374 
L 107.329901 16.85062 
L 108.185347 16.131898 
L 108.613069 15.943652 
L 109.040792 15.905101 
L 109.896238 16.205794 
L 112.890297 18.160493 
L 113.745743 18.380598 
L 115.028911 18.379534 
L 118.450693 18.043127 
L 120.589307 17.816831 
L 121.444752 17.446254 
L 124.438812 15.679677 
L 128.71604 13.859242 
L 129.571485 13.882945 
L 130.426931 14.166714 
L 131.282376 14.872358 
L 132.137822 16.168336 
L 132.993267 18.051257 
L 133.848713 20.633061 
L 134.704158 24.119909 
L 136.842772 33.770761 
L 138.125941 37.861856 
L 139.409109 41.144269 
L 140.264554 42.541095 
L 140.692277 42.821106 
L 141.12 24.140303 
L 141.975446 30.473606 
L 142.403168 31.435576 
L 142.830891 30.079209 
L 143.686337 24.100332 
L 144.541782 18.494496 
L 146.252673 13.007235 
L 146.680396 11.870389 
L 147.108119 11.62952 
L 147.535842 12.110081 
L 149.246733 15.010023 
L 149.674455 15.373844 
L 150.102178 15.441661 
L 150.529901 15.192257 
L 150.957624 14.660669 
L 152.240792 12.549663 
L 152.668515 12.196663 
L 153.096238 12.206702 
L 153.52396 12.540311 
L 154.807129 14.01826 
L 155.234851 14.281853 
L 156.090297 14.368413 
L 157.801188 14.228894 
L 159.084356 14.096397 
L 160.795248 13.592005 
L 164.644752 12.183826 
L 167.638812 10.812751 
L 168.494257 10.67605 
L 170.632871 10.709497 
L 172.771485 9.928227 
L 173.626931 10.03006 
L 174.482376 10.467968 
L 175.337822 11.146031 
L 176.193267 12.034274 
L 176.62099 12.626671 
L 177.048713 13.413277 
L 177.904158 15.827355 
L 179.187327 20.461204 
L 179.61505 21.593853 
L 180.042772 22.248353 
L 180.470495 22.438967 
L 180.898218 22.29074 
L 182.181386 21.414251 
L 183.036832 21.056039 
L 183.892277 20.930787 
L 184.32 24.454398 
L 184.747723 25.116291 
L 185.175446 26.343021 
L 186.030891 29.225227 
L 186.458614 29.751429 
L 186.886337 29.659859 
L 187.314059 29.728396 
L 188.597228 31.668153 
L 189.452673 31.892968 
L 190.735842 32.065536 
L 192.446733 32.018948 
L 193.302178 31.82904 
L 194.157624 31.479644 
L 201.001188 27.603925 
L 203.995248 25.343932 
L 207.41703 23.39131 
L 208.272475 23.092409 
L 209.555644 22.924463 
L 212.12198 22.801653 
L 212.977426 22.41442 
L 213.832871 21.573462 
L 216.826931 18.077065 
L 219.82099 15.718738 
L 220.248713 15.459054 
L 220.676436 15.338127 
L 221.104158 15.431589 
L 221.531881 15.795616 
L 222.387327 17.233823 
L 225.809109 23.746671 
L 226.236832 24.234693 
L 226.664554 24.525131 
L 227.092277 24.637225 
L 227.52 42.181153 
L 228.375446 33.407935 
L 228.803168 31.109792 
L 229.230891 30.276199 
L 229.658614 29.816643 
L 230.086337 29.019504 
L 231.369505 25.230184 
L 233.080396 21.711331 
L 234.363564 18.843526 
L 235.21901 17.518298 
L 236.074455 16.699019 
L 236.929901 16.423249 
L 237.785347 16.427467 
L 240.779406 17.021142 
L 241.634851 17.348851 
L 244.201188 18.724745 
L 245.056634 18.909072 
L 245.912079 18.929045 
L 246.767525 18.77565 
L 248.906139 18.222282 
L 252.327921 17.855014 
L 253.183366 17.450442 
L 254.466535 16.471499 
L 257.032871 14.091936 
L 258.31604 12.9477 
L 259.171485 12.571241 
L 259.599208 12.540928 
L 260.026931 12.634116 
L 260.454653 12.859282 
L 261.310099 13.704633 
L 262.165545 15.037035 
L 263.02099 16.917208 
L 263.876436 19.620733 
L 264.731881 23.209712 
L 267.725941 37.491481 
L 268.581386 40.3365 
L 269.436832 42.345039 
L 269.864554 42.967685 
L 270.292277 43.265858 
L 270.292277 43.265858 
" style="fill:none;stroke:#0000ff;stroke-linecap:square;"/>
   </g>
   <g id="line2d_25">
    <path clip-path="url(#p89806e3029)" d="M 11.52 24.497459 
L 12.375446 33.270765 
L 12.803168 33.380695 
L 13.230891 30.349494 
L 14.086337 22.295866 
L 14.514059 19.638562 
L 14.941782 18.001638 
L 15.797228 16.000236 
L 16.22495 15.269952 
L 16.652673 15.03525 
L 17.080396 15.504369 
L 17.935842 16.973968 
L 18.363564 17.182544 
L 18.791287 16.873579 
L 19.646733 15.222284 
L 20.929901 12.458608 
L 21.357624 11.796673 
L 21.785347 11.424588 
L 22.213069 11.361063 
L 22.640792 11.542346 
L 24.779406 13.041538 
L 25.207129 13.099837 
L 26.062574 12.918388 
L 27.345743 12.557483 
L 28.201188 12.613258 
L 31.195248 13.31485 
L 32.050693 13.031978 
L 34.189307 11.954438 
L 35.044752 11.795598 
L 36.327921 11.822704 
L 37.183366 11.814028 
L 38.038812 11.544246 
L 40.177426 10.451773 
L 41.460594 9.824502 
L 42.31604 9.45794 
L 42.743762 9.43392 
L 43.171485 9.555978 
L 43.599208 9.818849 
L 44.454653 10.729156 
L 46.165545 13.065912 
L 46.593267 13.86057 
L 47.02099 14.976306 
L 48.731881 20.864856 
L 49.159604 21.784858 
L 49.587327 22.291255 
L 50.01505 22.410726 
L 50.870495 21.933443 
L 51.725941 21.596934 
L 53.009109 21.25384 
L 54.292277 20.854379 
L 54.72 21.839908 
L 55.147723 21.22499 
L 55.575446 21.879423 
L 56.430891 25.913296 
L 56.858614 26.8291 
L 57.714059 26.792564 
L 58.141782 27.074566 
L 60.280396 29.385516 
L 61.135842 29.723274 
L 61.991287 29.824691 
L 62.846733 29.694429 
L 64.129901 29.153606 
L 66.268515 27.898434 
L 67.551683 27.170469 
L 71.401188 25.26601 
L 75.250693 23.178822 
L 79.527921 21.188659 
L 81.666535 20.696046 
L 82.52198 20.227742 
L 83.805149 19.182751 
L 86.371485 16.814677 
L 87.654653 15.919659 
L 89.365545 14.969379 
L 90.22099 14.759388 
L 90.648713 14.860453 
L 91.076436 15.129073 
L 91.504158 15.590361 
L 92.359604 17.138812 
L 93.21505 18.637897 
L 95.353663 20.914982 
L 96.209109 21.911601 
L 97.064554 22.540426 
L 97.492277 22.659726 
L 97.92 41.962659 
L 98.775446 33.927203 
L 99.203168 32.149404 
L 100.058614 31.095415 
L 102.62495 24.983683 
L 104.335842 19.363446 
L 105.191287 17.57143 
L 106.046733 16.507089 
L 106.902178 15.945517 
L 107.757624 15.893011 
L 109.040792 16.26193 
L 110.32396 16.829481 
L 113.31802 18.571012 
L 114.173465 18.689316 
L 115.028911 18.549018 
L 118.02297 17.59194 
L 121.01703 17.31227 
L 124.438812 16.3138 
L 125.72198 15.574513 
L 127.432871 14.639406 
L 128.288317 14.371562 
L 129.143762 14.33656 
L 129.999208 14.658579 
L 130.854653 15.374632 
L 131.710099 16.505182 
L 132.565545 18.060909 
L 133.42099 20.279459 
L 134.276436 23.314074 
L 135.559604 28.987202 
L 136.842772 34.699502 
L 137.698218 37.587216 
L 138.553663 39.848267 
L 139.409109 41.616301 
L 140.264554 42.755971 
L 140.692277 42.973246 
L 141.12 23.971441 
L 141.975446 29.949472 
L 142.403168 30.946965 
L 142.830891 29.758786 
L 143.686337 24.168157 
L 144.114059 21.291136 
L 144.541782 19.224037 
L 146.252673 13.838046 
L 146.680396 13.377975 
L 147.108119 13.637558 
L 148.391287 15.159332 
L 148.81901 15.447359 
L 149.246733 15.575592 
L 149.674455 15.566521 
L 150.102178 15.430954 
L 150.957624 14.754764 
L 152.668515 12.754153 
L 153.096238 12.711827 
L 153.52396 12.964907 
L 154.807129 14.363572 
L 155.234851 14.55893 
L 155.662574 14.529861 
L 157.373465 13.881397 
L 158.656634 13.813306 
L 160.795248 13.7807 
L 161.22297 13.610662 
L 162.078416 12.897045 
L 162.933861 12.13583 
L 163.361584 11.915501 
L 164.21703 11.837785 
L 165.927921 11.885838 
L 167.211089 11.72219 
L 170.205149 10.885583 
L 171.060594 10.983398 
L 172.343762 11.596479 
L 175.765545 13.507118 
L 176.62099 14.167998 
L 177.476436 15.130449 
L 178.331881 16.81473 
L 179.61505 19.67843 
L 180.042772 20.368532 
L 180.470495 20.819893 
L 180.898218 21.035629 
L 181.753663 21.013293 
L 183.464554 20.921919 
L 183.892277 20.922419 
L 184.32 24.979197 
L 185.175446 26.438709 
L 186.030891 28.292536 
L 186.458614 28.865191 
L 186.886337 29.046039 
L 187.314059 29.434981 
L 188.169505 31.055474 
L 188.597228 31.512504 
L 189.452673 31.969816 
L 190.308119 31.995456 
L 191.591287 31.544812 
L 193.729901 30.799584 
L 195.013069 30.035232 
L 196.72396 28.937937 
L 198.434851 28.187917 
L 200.573465 27.370453 
L 203.567525 26.085155 
L 207.41703 24.542619 
L 210.411089 22.963339 
L 212.12198 22.057696 
L 213.832871 20.855073 
L 215.543762 19.213511 
L 218.965545 15.771994 
L 219.82099 15.096978 
L 220.248713 14.924172 
L 220.676436 14.924949 
L 221.104158 15.119442 
L 221.531881 15.495503 
L 221.959604 16.049005 
L 226.664554 24.058396 
L 227.092277 24.267379 
L 227.52 42.607664 
L 228.375446 34.766082 
L 228.803168 32.848317 
L 229.230891 32.277441 
L 229.658614 31.908402 
L 230.086337 31.049096 
L 230.941782 28.35204 
L 232.22495 25.195292 
L 233.935842 20.413062 
L 234.791287 18.769855 
L 235.21901 18.268797 
L 236.074455 17.746685 
L 237.785347 17.11951 
L 239.068515 17.046253 
L 240.351683 17.229874 
L 241.634851 17.650948 
L 243.345743 18.447237 
L 244.201188 18.619308 
L 245.056634 18.612893 
L 246.339802 18.341823 
L 248.478416 17.887238 
L 249.761584 17.572634 
L 251.900198 16.741715 
L 254.894257 15.776968 
L 256.605149 15.026242 
L 257.888317 14.26469 
L 259.171485 13.496778 
L 259.599208 13.400085 
L 260.026931 13.427413 
L 260.882376 13.840575 
L 261.737822 14.742122 
L 262.593267 16.156538 
L 263.448713 18.111044 
L 264.304158 20.802671 
L 265.159604 24.291923 
L 266.442772 30.675481 
L 267.725941 36.692547 
L 268.581386 39.806032 
L 269.436832 42.123196 
L 269.864554 42.871808 
L 270.292277 43.229297 
L 270.292277 43.229297 
" style="fill:none;stroke:#0000ff;stroke-linecap:square;"/>
   </g>
   <g id="line2d_26">
    <path clip-path="url(#p89806e3029)" d="M 11.52 23.607775 
L 11.947723 26.521711 
L 12.375446 28.48176 
L 12.803168 27.787799 
L 13.658614 23.123643 
L 14.086337 21.550823 
L 14.514059 20.641979 
L 15.369505 19.222758 
L 16.22495 17.205772 
L 16.652673 16.508727 
L 17.080396 16.179487 
L 18.363564 15.802623 
L 19.21901 15.186694 
L 20.074455 14.088932 
L 21.357624 12.085964 
L 21.785347 11.708591 
L 22.213069 11.552067 
L 22.640792 11.580652 
L 23.496238 11.944005 
L 24.779406 12.521493 
L 25.634851 12.819978 
L 26.490297 13.375259 
L 27.345743 14.043749 
L 28.201188 14.366375 
L 29.912079 14.647031 
L 31.195248 14.650463 
L 33.333861 14.151939 
L 34.189307 13.7799 
L 36.755644 12.116673 
L 38.038812 10.731413 
L 39.32198 9.546448 
L 40.605149 8.754997 
L 42.743762 7.624608 
L 43.599208 7.649393 
L 44.454653 8.031175 
L 45.737822 8.889574 
L 46.165545 9.354868 
L 46.593267 10.071178 
L 47.02099 11.132892 
L 49.587327 19.245315 
L 50.01505 20.124873 
L 50.442772 20.708128 
L 50.870495 21.013242 
L 51.298218 21.075717 
L 53.436832 20.608272 
L 54.292277 20.608834 
L 54.72 21.994338 
L 55.147723 21.925331 
L 55.575446 22.937834 
L 56.430891 26.154877 
L 56.858614 26.758751 
L 57.714059 27.14798 
L 58.997228 27.997818 
L 61.563564 29.466008 
L 62.41901 29.531911 
L 63.274455 29.290952 
L 67.979406 27.192073 
L 68.834851 26.462392 
L 70.973465 24.106238 
L 72.256634 23.473839 
L 75.678416 21.750581 
L 77.389307 20.669357 
L 78.244752 20.488847 
L 79.527921 20.278906 
L 82.52198 19.255678 
L 86.799208 17.006994 
L 88.510099 15.626946 
L 89.365545 15.25999 
L 90.22099 15.254735 
L 91.076436 15.629871 
L 91.931881 16.192357 
L 92.359604 16.582748 
L 92.787327 17.144086 
L 94.070495 19.532272 
L 95.781386 21.415278 
L 96.636832 22.423692 
L 97.064554 22.726521 
L 97.492277 22.859256 
L 97.92 42.066745 
L 98.775446 34.404668 
L 99.203168 32.658273 
L 100.058614 31.106556 
L 100.914059 28.577358 
L 101.769505 26.968651 
L 102.62495 25.295782 
L 105.61901 18.228378 
L 106.474455 17.004579 
L 106.902178 16.635423 
L 107.757624 16.321483 
L 109.468515 16.192938 
L 110.751683 16.345618 
L 112.034851 16.753117 
L 114.173465 17.745347 
L 115.456634 18.079873 
L 118.02297 18.401673 
L 119.733861 18.377351 
L 120.589307 18.060399 
L 121.872475 17.613274 
L 123.155644 17.270137 
L 124.438812 16.662295 
L 125.294257 16.051632 
L 128.288317 13.469079 
L 129.143762 13.11613 
L 129.999208 12.98994 
L 130.854653 13.148989 
L 131.282376 13.405962 
L 131.710099 13.80983 
L 132.137822 14.393222 
L 132.565545 15.202388 
L 133.42099 17.560249 
L 134.704158 22.417176 
L 135.987327 28.123246 
L 138.125941 37.967164 
L 138.981386 40.464563 
L 139.836832 42.138146 
L 140.264554 42.66359 
L 140.692277 42.914397 
L 141.12 22.663517 
L 141.975446 26.588282 
L 142.403168 27.094836 
L 142.830891 26.091705 
L 144.114059 21.117532 
L 144.969505 17.350343 
L 145.82495 15.293657 
L 146.680396 13.735394 
L 147.535842 13.023441 
L 147.963564 12.914327 
L 148.81901 13.133731 
L 149.674455 13.724159 
L 150.529901 14.273 
L 150.957624 14.317865 
L 153.096238 13.904756 
L 153.951683 13.838647 
L 155.234851 13.421558 
L 156.945743 12.830129 
L 158.656634 12.60333 
L 159.939802 12.682632 
L 162.506139 13.023332 
L 163.789307 12.878407 
L 165.072475 12.630848 
L 165.927921 12.852097 
L 166.783366 13.165365 
L 167.638812 13.155131 
L 168.494257 12.754209 
L 171.060594 11.021066 
L 171.91604 10.918074 
L 173.626931 10.953974 
L 174.482376 11.157418 
L 174.910099 11.409411 
L 175.765545 12.314062 
L 176.62099 13.817128 
L 177.476436 15.896868 
L 179.187327 21.037747 
L 179.61505 21.955953 
L 180.042772 22.58518 
L 180.470495 22.848054 
L 180.898218 22.729203 
L 182.181386 21.845967 
L 183.464554 21.387358 
L 183.892277 21.33222 
L 184.32 24.174545 
L 184.747723 24.452043 
L 185.175446 25.51808 
L 186.030891 28.369314 
L 186.458614 28.725812 
L 186.886337 28.641738 
L 187.314059 29.045075 
L 188.169505 31.757546 
L 188.597228 32.493517 
L 189.02495 32.608018 
L 190.735842 32.258078 
L 191.591287 31.945622 
L 192.446733 31.282073 
L 193.729901 30.189508 
L 194.585347 29.833687 
L 196.296238 29.4462 
L 198.007129 28.658908 
L 200.145743 27.553154 
L 203.995248 25.212875 
L 205.278416 24.969692 
L 208.700198 24.4003 
L 209.555644 24.027024 
L 212.977426 22.152269 
L 214.260594 20.933873 
L 217.254653 17.882217 
L 219.393267 15.971191 
L 220.248713 15.37816 
L 220.676436 15.226744 
L 221.104158 15.283824 
L 221.531881 15.574349 
L 221.959604 16.073036 
L 222.387327 16.811701 
L 223.670495 19.672488 
L 224.525941 20.644108 
L 225.381386 22.260519 
L 226.236832 23.76811 
L 226.664554 24.201949 
L 227.092277 24.382481 
L 227.52 42.689907 
L 228.375446 35.389463 
L 228.803168 33.875771 
L 229.658614 33.362498 
L 230.086337 32.642072 
L 230.514059 31.132855 
L 232.22495 22.907103 
L 233.080396 19.938426 
L 233.935842 17.956037 
L 234.363564 17.31083 
L 234.791287 16.915552 
L 235.646733 16.637585 
L 236.502178 16.640632 
L 239.496238 17.156279 
L 240.351683 17.430791 
L 242.062574 18.230311 
L 242.91802 18.254867 
L 243.773465 18.05739 
L 245.912079 17.394461 
L 246.767525 17.33182 
L 248.050693 17.530887 
L 250.189307 18.014078 
L 251.044752 17.994975 
L 251.900198 17.676594 
L 252.755644 16.987334 
L 254.466535 15.402894 
L 257.460594 13.426709 
L 258.31604 13.00646 
L 259.171485 12.910297 
L 260.026931 13.243965 
L 260.882376 13.984667 
L 261.737822 15.101716 
L 262.593267 16.564948 
L 263.448713 18.454094 
L 264.304158 21.094645 
L 265.159604 24.530171 
L 266.442772 30.887842 
L 267.725941 37.303936 
L 268.581386 40.245464 
L 269.436832 42.326748 
L 269.864554 43.029906 
L 270.292277 43.364619 
L 270.292277 43.364619 
" style="fill:none;stroke:#0000ff;stroke-linecap:square;"/>
   </g>
   <g id="line2d_27">
    <path clip-path="url(#p89806e3029)" d="M 11.52 23.267468 
L 12.375446 28.728102 
L 12.803168 29.027943 
L 13.230891 27.376464 
L 14.086337 23.128777 
L 15.797228 16.942492 
L 16.22495 15.908926 
L 16.652673 15.346745 
L 17.080396 15.157795 
L 17.508119 15.260734 
L 18.363564 15.687889 
L 18.791287 15.490116 
L 19.646733 14.2478 
L 20.502178 13.019997 
L 21.785347 11.575174 
L 22.213069 11.271673 
L 22.640792 11.125965 
L 23.068515 11.140406 
L 23.496238 11.315792 
L 24.351683 12.018424 
L 26.062574 13.668164 
L 26.91802 14.281812 
L 27.773465 14.582105 
L 29.056634 14.600512 
L 30.339802 14.735205 
L 31.195248 14.758995 
L 32.478416 14.460655 
L 33.333861 13.956656 
L 35.472475 11.926209 
L 36.755644 11.012519 
L 38.038812 10.425711 
L 38.894257 9.976079 
L 41.032871 8.322237 
L 42.31604 7.177185 
L 43.171485 6.864435 
L 44.026931 6.996951 
L 44.882376 7.537837 
L 45.310099 8.03405 
L 45.737822 8.786507 
L 46.165545 9.903987 
L 47.02099 13.280984 
L 47.876436 17.021583 
L 48.731881 19.66625 
L 49.159604 20.38477 
L 49.587327 20.714686 
L 50.01505 20.763167 
L 50.870495 20.443783 
L 51.725941 20.0806 
L 52.581386 19.955579 
L 53.864554 20.103182 
L 54.292277 20.161701 
L 54.72 22.088946 
L 55.147723 22.124179 
L 55.575446 23.094159 
L 56.430891 26.450295 
L 56.858614 27.180484 
L 57.286337 27.07925 
L 57.714059 26.794205 
L 58.141782 26.855276 
L 58.997228 27.939192 
L 59.852673 28.93885 
L 60.708119 29.57475 
L 61.563564 29.943091 
L 62.41901 30.067807 
L 63.274455 29.997104 
L 64.557624 29.439072 
L 66.696238 28.51657 
L 67.979406 27.86639 
L 68.834851 27.258884 
L 70.973465 25.432471 
L 75.250693 23.131251 
L 76.961584 22.554604 
L 79.100198 22.18815 
L 80.811089 21.727625 
L 81.666535 21.296337 
L 83.377426 20.049135 
L 85.088317 18.635412 
L 86.371485 17.917217 
L 88.082376 17.044558 
L 89.365545 16.381181 
L 89.793267 16.341115 
L 90.22099 16.449897 
L 91.076436 17.03674 
L 91.931881 18.060379 
L 93.21505 20.080747 
L 96.209109 22.685463 
L 97.064554 23.029841 
L 97.492277 23.075434 
L 97.92 41.820739 
L 98.775446 34.014452 
L 99.203168 32.098195 
L 99.630891 31.409945 
L 100.486337 30.389907 
L 102.197228 27.784472 
L 103.052673 25.451277 
L 104.763564 20.426566 
L 105.61901 18.609568 
L 106.474455 17.35681 
L 107.329901 16.473111 
L 108.185347 15.999058 
L 109.040792 15.817387 
L 109.896238 15.795197 
L 110.751683 15.979687 
L 111.607129 16.434467 
L 114.173465 18.176174 
L 115.456634 18.604222 
L 116.739802 18.810262 
L 118.450693 18.851906 
L 120.161584 18.544659 
L 121.444752 18.075509 
L 122.727921 17.295385 
L 125.294257 15.600072 
L 126.149703 15.280844 
L 127.432871 15.074469 
L 128.288317 15.098586 
L 129.143762 15.342317 
L 129.999208 15.764587 
L 130.854653 16.35048 
L 131.710099 17.181972 
L 132.137822 17.803249 
L 132.993267 19.700015 
L 133.848713 22.369955 
L 134.704158 25.653142 
L 137.270495 36.723002 
L 138.125941 39.160846 
L 138.981386 41.012022 
L 139.836832 42.335517 
L 140.264554 42.738088 
L 140.692277 42.929021 
L 141.12 23.701371 
L 141.975446 30.306716 
L 142.403168 30.788475 
L 142.830891 28.542761 
L 144.114059 19.109736 
L 144.969505 14.760637 
L 145.397228 13.666587 
L 145.82495 13.119781 
L 146.252673 12.972281 
L 147.108119 13.426041 
L 147.963564 13.710227 
L 148.391287 13.644491 
L 148.81901 13.358364 
L 149.674455 12.486572 
L 150.102178 12.231625 
L 150.529901 12.151626 
L 150.957624 12.215772 
L 151.813069 12.732631 
L 153.096238 13.829088 
L 153.951683 14.185195 
L 156.945743 14.655635 
L 157.801188 14.570525 
L 160.795248 13.864955 
L 162.506139 13.766962 
L 164.21703 13.740801 
L 165.072475 13.482796 
L 168.066535 12.178416 
L 170.632871 11.495224 
L 171.91604 11.028297 
L 172.771485 10.972838 
L 173.626931 11.209717 
L 174.482376 11.661549 
L 175.337822 12.319819 
L 176.193267 13.252647 
L 177.048713 14.46638 
L 177.904158 16.100064 
L 180.042772 20.986318 
L 180.470495 21.42374 
L 180.898218 21.503376 
L 181.753663 21.263378 
L 183.892277 21.182979 
L 184.32 25.187023 
L 185.603168 28.487903 
L 186.030891 29.197547 
L 186.458614 29.178834 
L 186.886337 28.80234 
L 187.314059 28.950372 
L 187.741782 29.904686 
L 188.597228 32.105109 
L 189.02495 32.477184 
L 189.880396 32.505176 
L 190.735842 32.484707 
L 191.591287 32.529774 
L 192.446733 32.332556 
L 193.302178 31.811475 
L 195.440792 30.318157 
L 197.151683 29.233889 
L 201.856634 26.931432 
L 204.42297 25.90242 
L 205.706139 25.414089 
L 208.272475 24.691757 
L 209.555644 24.084671 
L 212.977426 21.986321 
L 214.688317 20.429688 
L 220.676436 14.695778 
L 221.104158 14.55967 
L 221.531881 14.722073 
L 221.959604 15.261971 
L 223.242772 17.891944 
L 224.525941 19.616933 
L 226.236832 23.465358 
L 226.664554 23.985898 
L 227.092277 24.202453 
L 227.52 42.295162 
L 228.375446 33.005429 
L 228.803168 31.218123 
L 229.230891 31.331508 
L 229.658614 31.940946 
L 230.086337 32.085969 
L 230.514059 31.478065 
L 230.941782 30.203101 
L 232.22495 24.475705 
L 233.080396 20.971289 
L 233.935842 18.327667 
L 234.363564 17.327709 
L 234.791287 16.62773 
L 235.21901 16.222605 
L 236.074455 15.881275 
L 237.357624 15.71283 
L 238.213069 15.784042 
L 239.068515 16.02838 
L 239.92396 16.521771 
L 241.634851 17.729185 
L 242.490297 18.10275 
L 243.345743 18.28704 
L 244.201188 18.256247 
L 245.912079 17.858558 
L 247.62297 17.473281 
L 249.333861 17.439388 
L 251.044752 17.378227 
L 252.327921 17.163564 
L 253.611089 16.68539 
L 254.894257 15.962717 
L 257.460594 14.341947 
L 258.31604 14.084826 
L 259.171485 14.024411 
L 260.026931 14.158248 
L 260.882376 14.506395 
L 261.737822 15.175766 
L 262.593267 16.309086 
L 263.448713 18.000797 
L 264.304158 20.45767 
L 265.159604 23.676024 
L 266.01505 27.617343 
L 267.725941 36.398214 
L 268.581386 39.697835 
L 269.436832 42.161963 
L 269.864554 42.951473 
L 270.292277 43.317566 
L 270.292277 43.317566 
" style="fill:none;stroke:#0000ff;stroke-linecap:square;"/>
   </g>
   <g id="line2d_28">
    <path clip-path="url(#p89806e3029)" d="M 11.52 22.73567 
L 12.375446 28.575491 
L 12.803168 30.061376 
L 13.230891 29.294668 
L 14.514059 23.136024 
L 15.797228 18.990485 
L 16.22495 17.993218 
L 16.652673 17.675624 
L 17.080396 17.976425 
L 17.935842 19.174537 
L 18.363564 19.399593 
L 18.791287 19.134017 
L 19.21901 18.388145 
L 21.357624 13.136631 
L 21.785347 12.577579 
L 22.213069 12.29871 
L 22.640792 12.275076 
L 23.496238 12.711249 
L 24.351683 13.259342 
L 25.207129 13.490257 
L 27.345743 13.400502 
L 28.201188 13.873156 
L 29.484356 14.675187 
L 30.339802 14.849307 
L 31.195248 14.648207 
L 33.333861 13.531475 
L 35.472475 12.146021 
L 36.755644 11.210909 
L 38.038812 10.209314 
L 40.177426 8.849609 
L 41.032871 8.035621 
L 41.888317 7.555955 
L 42.743762 7.315434 
L 43.599208 7.3412 
L 44.454653 7.608029 
L 45.310099 8.169719 
L 45.737822 8.691785 
L 46.165545 9.506025 
L 46.593267 10.71073 
L 47.448713 14.275628 
L 48.304158 18.088122 
L 48.731881 19.561749 
L 49.159604 20.605127 
L 49.587327 21.213421 
L 50.01505 21.454556 
L 50.442772 21.423012 
L 51.298218 21.115031 
L 52.153663 21.089175 
L 53.009109 21.120474 
L 54.292277 20.913555 
L 54.72 23.06369 
L 55.147723 23.296062 
L 55.575446 23.671167 
L 56.003168 24.393219 
L 56.858614 26.060876 
L 57.286337 26.227092 
L 57.714059 26.117315 
L 58.141782 26.178765 
L 58.569505 26.587875 
L 59.852673 28.629514 
L 60.280396 28.884533 
L 61.135842 28.91491 
L 62.41901 28.978087 
L 63.274455 29.04278 
L 64.129901 28.862869 
L 69.690297 26.362763 
L 70.973465 25.419526 
L 72.256634 24.314354 
L 73.112079 23.811422 
L 76.961584 22.029087 
L 79.527921 20.553125 
L 80.811089 20.235653 
L 82.094257 20.057168 
L 82.949703 19.743286 
L 84.232871 18.99299 
L 85.088317 18.263184 
L 86.799208 16.63123 
L 88.510099 15.435444 
L 89.365545 15.047877 
L 89.793267 15.017564 
L 90.22099 15.12839 
L 91.076436 15.718188 
L 91.931881 16.639765 
L 93.21505 18.347176 
L 94.498218 19.622481 
L 96.209109 21.87988 
L 97.064554 22.550531 
L 97.492277 22.684225 
L 97.92 42.368924 
L 98.775446 35.725119 
L 99.203168 33.617249 
L 99.630891 32.823035 
L 100.914059 31.851977 
L 101.341782 31.386667 
L 101.769505 30.728437 
L 102.197228 29.654513 
L 103.480396 24.759269 
L 104.335842 21.673468 
L 105.191287 19.382373 
L 106.046733 17.851229 
L 106.902178 16.794158 
L 107.757624 16.069287 
L 108.613069 15.732562 
L 109.468515 15.755976 
L 110.32396 16.076851 
L 111.607129 16.896079 
L 114.173465 18.714248 
L 115.028911 19.01489 
L 115.884356 19.087648 
L 117.167525 18.90338 
L 118.878416 18.37869 
L 120.161584 18.002164 
L 122.727921 17.613172 
L 124.011089 17.103681 
L 125.72198 16.086472 
L 128.288317 14.547366 
L 129.143762 14.223923 
L 129.999208 14.234563 
L 130.854653 14.645039 
L 131.710099 15.484148 
L 132.565545 16.906206 
L 133.42099 19.200999 
L 134.276436 22.24984 
L 135.559604 27.843684 
L 137.270495 35.685682 
L 138.125941 38.453069 
L 138.981386 40.597603 
L 139.836832 42.189427 
L 140.264554 42.68251 
L 140.692277 42.910764 
L 141.12 24.197246 
L 141.975446 30.794556 
L 142.403168 31.98321 
L 142.830891 30.704063 
L 143.686337 24.431031 
L 144.114059 21.236561 
L 144.541782 18.926045 
L 145.397228 16.480411 
L 146.252673 14.45382 
L 146.680396 14.351625 
L 148.81901 16.878894 
L 149.246733 16.968606 
L 150.957624 16.565496 
L 151.385347 16.37492 
L 152.240792 15.625561 
L 153.096238 14.927303 
L 153.52396 14.905661 
L 153.951683 15.11522 
L 155.234851 16.094341 
L 155.662574 16.14086 
L 156.090297 16.001884 
L 158.228911 14.723171 
L 159.512079 14.404275 
L 161.650693 14.110866 
L 162.933861 13.964657 
L 163.789307 13.59356 
L 165.500198 12.399777 
L 166.355644 11.915716 
L 167.211089 11.695502 
L 168.066535 11.530007 
L 168.92198 11.101764 
L 170.205149 10.291309 
L 170.632871 10.203049 
L 171.488317 10.416251 
L 172.343762 10.955396 
L 174.482376 12.387439 
L 175.337822 12.964835 
L 176.193267 13.814229 
L 177.048713 15.219445 
L 177.904158 17.408158 
L 179.187327 20.938737 
L 180.042772 22.638299 
L 180.470495 23.162366 
L 180.898218 23.358576 
L 181.325941 23.260685 
L 183.464554 21.639759 
L 183.892277 21.537996 
L 184.32 24.930743 
L 185.175446 26.844164 
L 186.030891 29.082897 
L 186.458614 29.630795 
L 186.886337 29.69387 
L 187.314059 29.966199 
L 188.597228 32.752815 
L 189.02495 33.202184 
L 189.452673 33.421554 
L 189.880396 33.487413 
L 190.308119 33.425203 
L 191.163564 32.934668 
L 194.157624 30.512593 
L 195.440792 30.115489 
L 196.72396 29.604581 
L 198.434851 28.667419 
L 200.145743 27.67796 
L 203.567525 25.316823 
L 207.41703 23.245232 
L 209.983366 22.682651 
L 212.12198 22.249752 
L 212.977426 21.791432 
L 213.832871 21.047996 
L 217.682376 16.837846 
L 218.965545 15.309297 
L 219.82099 14.665316 
L 220.248713 14.532413 
L 220.676436 14.544723 
L 221.531881 14.946633 
L 221.959604 15.343463 
L 222.387327 15.95648 
L 223.242772 17.847809 
L 224.098218 19.886992 
L 226.236832 23.703134 
L 226.664554 24.231191 
L 227.092277 24.456885 
L 227.52 42.52242 
L 228.375446 34.361426 
L 228.803168 32.154299 
L 229.230891 31.410275 
L 229.658614 31.102597 
L 230.086337 30.530515 
L 230.941782 28.12705 
L 232.652673 23.039931 
L 233.508119 20.586098 
L 234.363564 18.845607 
L 234.791287 18.29055 
L 235.21901 17.956054 
L 235.646733 17.83213 
L 236.929901 17.798939 
L 238.213069 17.572483 
L 239.496238 17.683983 
L 241.207129 18.154942 
L 243.345743 18.799264 
L 244.201188 18.774715 
L 245.056634 18.492068 
L 247.62297 17.384766 
L 248.906139 17.319397 
L 251.044752 17.483539 
L 252.327921 17.578045 
L 253.183366 17.457456 
L 254.466535 16.926083 
L 256.177426 15.931563 
L 257.888317 14.597061 
L 259.171485 13.517995 
L 260.026931 13.142746 
L 260.454653 13.141638 
L 260.882376 13.273953 
L 261.737822 13.903895 
L 262.593267 15.000313 
L 263.448713 16.765886 
L 264.304158 19.369384 
L 265.159604 22.735964 
L 266.01505 26.980371 
L 267.725941 36.481563 
L 268.581386 39.964169 
L 269.436832 42.293489 
L 269.864554 42.984617 
L 270.292277 43.304915 
L 270.292277 43.304915 
" style="fill:none;stroke:#0000ff;stroke-linecap:square;"/>
   </g>
   <g id="patch_3">
    <path d="M 11.52 43.776 
L 11.52 2.88 
" style="fill:none;stroke:#000000;stroke-linecap:square;stroke-linejoin:miter;stroke-width:0.8;"/>
   </g>
   <g id="patch_4">
    <path d="M 270.72 43.776 
L 270.72 2.88 
" style="fill:none;stroke:#000000;stroke-linecap:square;stroke-linejoin:miter;stroke-width:0.8;"/>
   </g>
   <g id="patch_5">
    <path d="M 11.52 43.776 
L 270.72 43.776 
" style="fill:none;stroke:#000000;stroke-linecap:square;stroke-linejoin:miter;stroke-width:0.8;"/>
   </g>
   <g id="patch_6">
    <path d="M 11.52 2.88 
L 270.72 2.88 
" style="fill:none;stroke:#000000;stroke-linecap:square;stroke-linejoin:miter;stroke-width:0.8;"/>
   </g>
  </g>
 </g>
 <defs>
  <clipPath id="p89806e3029">
   <rect height="40.896" width="259.2" x="11.52" y="2.88"/>
  </clipPath>
 </defs>
</svg>
